<?xml version="1.0" standalone="no"?>
<!DOCTYPE svg PUBLIC "-//W3C//DTD SVG 20010904//EN"
 "http://www.w3.org/TR/2001/REC-SVG-20010904/DTD/svg10.dtd">
<svg version="1.0" xmlns="http://www.w3.org/2000/svg"
 width="234.000000pt" height="81.000000pt" viewBox="0 0 234.000000 81.000000"
 preserveAspectRatio="xMidYMid meet">

<g transform="translate(0.000000,81.000000) scale(0.100000,-0.100000)"
fill="#000000" stroke="none">
<path d="M520 727 c200 -134 177 -122 191 -95 6 13 8 20 4 16 -4 -4 -17 4 -30
17 -12 14 -25 22 -28 18 -4 -3 -7 -2 -7 4 0 6 -13 16 -30 23 -16 7 -30 16 -30
20 0 9 -125 66 -165 74 -20 5 13 -22 95 -77z"/>
<path d="M1860 785 c-42 -13 -215 -115 -195 -115 5 0 0 -7 -11 -15 -12 -9 -14
-14 -6 -15 7 0 10 -5 6 -12 -9 -14 -6 -13 139 84 64 43 117 81 117 83 0 3 -1
5 -2 4 -2 0 -23 -7 -48 -14z"/>
<path d="M999 673 c-19 -42 -35 -80 -37 -85 -2 -4 1 -8 7 -8 6 0 17 16 25 35
12 28 20 35 43 35 24 0 31 -6 42 -35 7 -19 17 -35 22 -35 12 0 13 -1 -21 73
-16 37 -30 73 -30 82 0 33 -18 11 -51 -62z m51 5 c0 -5 -7 -8 -15 -8 -17 0
-18 2 -9 25 5 13 8 14 15 3 5 -7 9 -16 9 -20z"/>
<path d="M1301 675 c-19 -42 -37 -77 -41 -80 -7 -5 -90 55 -90 65 0 3 15 12
33 20 20 10 32 22 32 35 0 17 -7 20 -52 21 -31 1 -53 -3 -55 -10 -7 -22 4
-146 13 -146 5 0 9 14 9 30 0 37 6 37 50 0 47 -41 76 -39 94 5 12 28 20 35 43
35 24 0 31 -6 42 -35 7 -19 17 -35 22 -35 13 0 12 1 -21 72 -16 34 -30 71 -30
81 0 35 -17 15 -49 -58z m-81 42 c0 -13 -40 -37 -60 -37 -20 0 -9 31 13 40 32
13 47 12 47 -3z m130 -39 c0 -5 -7 -8 -15 -8 -17 0 -18 2 -9 25 5 13 8 14 15
3 5 -7 9 -16 9 -20z"/>
<path d="M1529 743 c0 -4 0 -35 0 -68 l1 -60 -29 35 c-17 19 -35 47 -42 63
-20 47 -29 30 -29 -53 0 -47 4 -80 10 -80 6 0 10 24 10 53 l1 52 29 -35 c16
-19 32 -43 35 -52 4 -10 13 -18 21 -18 11 0 14 17 14 79 0 44 -4 83 -10 86 -5
3 -10 3 -11 -2z"/>
<path d="M828 660 c-3 -80 -3 -80 22 -80 36 0 92 32 101 58 6 17 4 27 -11 39
-14 12 -16 20 -9 29 18 22 0 34 -51 34 l-48 0 -4 -80z m92 60 c0 -12 -33 -30
-54 -30 -22 0 -20 27 2 33 31 8 52 7 52 -3z m16 -62 c9 -14 -40 -58 -67 -58
-15 0 -19 7 -19 35 0 34 1 35 39 35 22 0 43 -5 47 -12z"/>
<path d="M0 597 c35 -31 331 -224 335 -218 19 32 -220 201 -306 216 -19 3 -31
4 -29 2z"/>
<path d="M2260 579 c-62 -22 -250 -161 -250 -185 0 -18 -9 -23 155 89 116 79
168 119 155 116 -3 0 -30 -9 -60 -20z"/>
<path d="M764 482 c-18 -11 -54 -75 -54 -94 0 -29 22 -67 42 -74 27 -8 67 22
84 63 28 67 -21 139 -72 105z m59 -48 c7 -22 5 -40 -4 -59 -33 -66 -85 -57
-83 14 1 76 68 111 87 45z"/>
<path d="M1048 478 c-27 -6 -48 -15 -48 -20 0 -6 11 -7 25 -4 25 6 25 6 25
-65 0 -87 6 -87 15 1 8 76 10 80 36 80 10 0 19 5 19 10 0 12 -8 11 -72 -2z"/>
<path d="M1414 420 l-21 -65 -19 62 c-10 35 -22 63 -25 63 -3 0 -12 -26 -19
-57 -13 -62 -23 -58 -35 15 -4 23 -11 42 -17 42 -6 0 -8 -10 -5 -22 3 -13 11
-49 17 -80 6 -32 15 -58 19 -58 5 0 15 24 24 53 l15 52 16 -37 c9 -21 16 -45
16 -54 0 -37 24 -3 43 59 21 71 40 88 37 35 -1 -18 -2 -51 -1 -73 l1 -40 48 3
c26 2 52 9 57 14 7 7 -7 8 -43 4 l-53 -7 3 28 c2 22 10 29 41 36 47 11 49 28
2 20 -33 -5 -35 -4 -35 21 0 24 4 26 39 26 69 0 54 18 -17 22 l-68 3 -20 -65z"/>
<path d="M1788 478 c-27 -6 -48 -15 -48 -20 0 -6 9 -8 20 -5 16 4 20 0 20 -21
1 -35 11 -106 16 -111 2 -2 4 28 4 68 0 71 0 72 30 77 16 4 27 10 24 15 -3 5
-8 8 -12 8 -4 -1 -28 -6 -54 -11z"/>
<path d="M580 458 c-41 -45 -19 -74 44 -57 58 16 75 -9 33 -49 -27 -26 -77
-30 -77 -7 0 8 -4 15 -10 15 -20 0 -10 -31 14 -41 33 -16 91 13 105 51 14 40
-6 54 -64 46 -37 -6 -45 -4 -45 8 0 9 12 23 26 33 21 13 30 14 45 5 16 -10 19
-9 19 3 0 24 -65 19 -90 -7z"/>
<path d="M870 405 c0 -71 1 -76 25 -87 22 -10 30 -8 53 9 24 18 27 28 30 87 2
41 -1 66 -8 66 -6 0 -10 -26 -10 -63 0 -68 -10 -87 -47 -87 -22 0 -23 3 -23
75 0 43 -4 75 -10 75 -6 0 -10 -32 -10 -75z"/>
<path d="M1130 400 c0 -47 4 -80 10 -80 6 0 10 18 10 40 l0 40 40 0 40 0 0
-40 c0 -22 5 -40 10 -40 6 0 10 33 10 80 0 47 -4 80 -10 80 -5 0 -10 -13 -10
-30 0 -22 -5 -30 -17 -30 -10 0 -28 -3 -40 -6 -21 -6 -23 -3 -23 30 0 20 -4
36 -10 36 -6 0 -10 -33 -10 -80z"/>
<path d="M1610 458 c-41 -45 -19 -74 44 -57 58 16 75 -9 33 -49 -27 -26 -77
-30 -77 -7 0 8 -4 15 -10 15 -20 0 -10 -31 14 -41 33 -16 91 13 105 51 14 40
-6 54 -64 46 -37 -6 -45 -4 -45 8 0 9 12 23 26 33 21 13 30 14 45 5 16 -10 19
-9 19 3 0 24 -65 19 -90 -7z"/>
<path d="M1010 150 c0 -44 3 -80 8 -80 4 0 7 36 7 80 0 44 -3 80 -7 80 -5 0
-8 -36 -8 -80z"/>
<path d="M1060 150 c0 -91 17 -110 22 -24 l3 57 40 -56 c22 -31 43 -56 48 -57
4 0 7 36 7 80 0 47 -4 80 -10 80 -6 0 -10 -28 -10 -62 l-1 -63 -29 35 c-16 19
-34 47 -41 63 -20 47 -29 30 -29 -53z"/>
<path d="M1235 210 c-10 -11 -20 -41 -23 -69 -4 -44 -2 -51 21 -66 25 -16 28
-16 57 1 16 10 30 22 30 26 0 4 -13 -1 -30 -10 -42 -24 -65 -8 -64 47 1 57 27
85 74 77 24 -4 30 -3 20 4 -25 16 -66 11 -85 -10z"/>
<path d="M70 152 c-77 -16 10 -22 308 -22 217 0 303 3 295 11 -12 12 -548 22
-603 11z"/>
<path d="M1690 152 c0 -19 49 -22 335 -21 249 1 283 3 240 13 -62 15 -575 22
-575 8z"/>
<path d="M595 10 c-16 -4 242 -8 575 -8 333 0 594 4 580 8 -32 10 -1115 10
-1155 0z"/>
</g>
</svg>
